Coordinates
version=1
nRows=8
nColumns=63
inDegrees=yes

Units are S.I. units (second, meters, Newtons, ...)
If the header above contains a line with 'inDegrees', this indicates whether rotational values are in degrees (yes) or radians (no).

endheader
time	pelvis_tilt	pelvis_list	pelvis_rotation	pelvis_tx	pelvis_ty	pelvis_tz	hip_flexion_r	hip_adduction_r	hip_rotation_r	knee_angle_r	knee_angle_r_beta	ankle_angle_r	subtalar_angle_r	mtp_angle_r	hip_flexion_l	hip_adduction_l	hip_rotation_l	knee_angle_l	knee_angle_l_beta	ankle_angle_l	subtalar_angle_l	mtp_angle_l	L5_S1_Flex_Ext	L5_S1_Lat_Bending	L5_S1_axial_rotation	L4_L5_Flex_Ext	L4_L5_Lat_Bending	L4_L5_axial_rotation	L3_L4_Flex_Ext	L3_L4_Lat_Bending	L3_L4_axial_rotation	L2_L3_Flex_Ext	L2_L3_Lat_Bending	L2_L3_axial_rotation	L1_L2_Flex_Ext	L1_L2_Lat_Bending	L1_L2_axial_rotation	L1_T12_Flex_Ext	L1_T12_Lat_Bending	L1_T12_axial_rotation	Abs_r3	Abs_r2	Abs_r1	Abs_t1	Abs_t2	neck_flexion	neck_bending	neck_rotation	arm_flex_r	arm_add_r	arm_rot_r	elbow_flex_r	pro_sup_r	wrist_flex_r	wrist_dev_r	arm_flex_l	arm_add_l	arm_rot_l	elbow_flex_l	pro_sup_l	wrist_flex_l	wrist_dev_l
1.883333	4.137048	-5.154903	96.347793	0.268927	0.943647	0.534507	16.637461	3.119560	-6.415920	12.217147	0.213229	30.483708	-3.277707	0.000000	18.986560	-4.906366	-1.759529	12.601657	0.219940	36.678826	16.939474	0.000000	-0.689452	0.722227	6.001435	-1.280380	0.960562	6.376524	-1.132700	1.756023	6.376524	-0.787974	1.756023	5.251255	-0.640225	1.472765	4.876166	-0.393953	1.118729	4.501076	-4.924683	8.169975	33.378180	0.000000	0.000000	-1.296131	-7.975320	-20.299009	-22.568466	-20.084819	-26.181355	98.280574	88.229502	-1.211445	19.155210	34.859259	12.226052	170.892324	0.090991	0.989737	-69.690851	-24.058520
1.900000	4.049036	-5.147660	95.977560	0.268821	0.943993	0.534625	16.607928	3.048739	-6.534466	12.135319	0.211801	30.649259	-2.489033	0.000000	18.797686	-4.876457	-1.943941	12.350384	0.215555	36.571750	16.795501	0.000000	-0.706894	0.724030	6.236043	-1.312772	0.962959	6.625796	-1.161356	1.760406	6.625796	-0.807909	1.760406	5.456538	-0.656422	1.476441	5.066785	-0.403919	1.121522	4.677032	-5.049271	8.190368	34.683000	0.000000	0.000000	-1.971306	-7.947278	-20.887378	-23.488071	-19.292417	-27.305104	99.738423	87.602233	-2.556367	19.347185	35.381372	12.779266	171.968968	0.088151	0.987667	-69.713284	-24.081335
1.916667	3.956158	-5.140909	95.603261	0.268697	0.944368	0.534896	16.568195	2.967153	-6.691113	12.004349	0.209515	30.812427	-1.646756	0.000000	18.580206	-4.832297	-2.086763	12.027656	0.209922	36.439924	16.602155	0.000000	-0.721177	0.723638	6.470340	-1.339299	0.962439	6.874736	-1.184822	1.759454	6.874736	-0.824234	1.759454	5.661547	-0.669685	1.475643	5.257151	-0.412081	1.120916	4.852755	-5.151299	8.185940	35.986089	0.000000	0.000000	-2.619169	-7.880287	-21.494187	-24.404985	-18.628815	-28.284685	101.113660	86.829549	-3.920916	19.360282	35.915097	13.291718	173.078622	0.085458	0.985157	-69.735830	-24.100135
1.933333	3.854646	-5.161880	95.198329	0.268609	0.944710	0.535254	16.559363	2.885238	-6.784423	11.853054	0.206875	30.939073	-0.878587	0.000000	18.369226	-4.780015	-2.235163	11.662051	0.203541	36.302310	16.374839	0.000000	-0.729921	0.719373	6.697629	-1.355536	0.956766	7.116231	-1.199187	1.749084	7.116231	-0.834226	1.749084	5.860425	-0.677804	1.466946	5.441823	-0.417077	1.114309	5.023222	-5.213750	8.137694	37.250203	0.000000	0.000000	-3.184317	-7.780278	-22.045448	-25.244390	-18.090464	-29.105029	102.340266	85.941625	-4.991617	19.440410	36.399677	13.715536	174.157224	0.083125	0.982441	-69.756565	-24.112975
1.950000	3.748093	-5.225203	94.788474	0.268525	0.945003	0.535596	16.584284	2.793103	-6.876017	11.667298	0.203633	31.041259	-0.120263	0.000000	18.176688	-4.712614	-2.351682	11.246914	0.196296	36.167463	16.098450	0.000000	-0.731104	0.711570	6.892249	-1.357734	0.946387	7.323015	-1.201131	1.730110	7.323015	-0.835579	1.730110	6.030718	-0.678904	1.451033	5.599953	-0.417753	1.102221	5.169187	-5.222206	8.049417	38.332624	0.000000	0.000000	-3.664717	-7.691046	-22.401285	-25.924905	-17.750776	-29.543735	103.322560	84.888541	-6.067281	19.465319	36.766173	13.987639	175.028297	0.081280	0.980766	-69.774167	-24.122187
1.966667	3.636744	-5.348755	94.351472	0.268499	0.945192	0.535866	16.677064	2.708662	-6.867281	11.477996	0.200329	31.083525	0.490750	0.000000	18.032221	-4.642736	-2.490768	10.820181	0.188848	36.058587	15.807567	0.000000	-0.723524	0.698911	7.060075	-1.343656	0.929551	7.501330	-1.188677	1.699331	7.501330	-0.826915	1.699331	6.177566	-0.671864	1.425218	5.736311	-0.413421	1.082612	5.295056	-5.168058	7.906216	39.266020	0.000000	0.000000	-4.031831	-7.605501	-22.599631	-26.427122	-17.583957	-29.719122	104.020260	83.757424	-6.716626	19.554862	37.005480	14.107388	175.778110	0.079979	0.978594	-69.786812	-24.122531
1.983333	3.524362	-5.535197	93.897999	0.268512	0.945255	0.536038	16.850656	2.637911	-6.727788	11.305465	0.197318	31.063805	0.894893	0.000000	17.953176	-4.574333	-2.664092	10.409127	0.181674	35.990740	15.524163	0.000000	-0.707520	0.681729	7.199958	-1.313936	0.906699	7.649955	-1.162385	1.657555	7.649955	-0.808625	1.657555	6.299963	-0.657003	1.390181	5.849966	-0.404277	1.055998	5.399968	-5.053746	7.711852	40.044005	0.000000	0.000000	-4.299234	-7.498991	-22.632531	-26.750068	-17.605261	-29.686763	104.459477	82.616294	-6.893723	19.763338	37.130134	14.089598	176.417281	0.079240	0.983696	-69.794029	-24.121494
2.000000	3.421269	-5.763979	93.454782	0.268558	0.945232	0.536127	17.084511	2.591075	-6.478606	11.149074	0.194588	30.962502	1.083389	0.000000	17.928929	-4.514903	-2.848133	10.021310	0.174905	35.945984	15.254925	0.000000	-0.687341	0.661144	7.306368	-1.276462	0.879322	7.763016	-1.129233	1.607506	7.763016	-0.785563	1.607506	6.393072	-0.638265	1.348206	5.936424	-0.392747	1.024113	5.479776	-4.909611	7.478997	40.635824	0.000000	0.000000	-4.484757	-7.345917	-22.541244	-26.865493	-17.836886	-29.489882	104.667835	81.593795	-6.553160	19.979853	37.188680	13.946300	176.982678	0.078841	0.989917	-69.797827	-24.118296
